<?xml version="1.0" encoding="UTF-8" standalone="no"?>
<svg
   xmlns:dc="http://purl.org/dc/elements/1.1/"
   xmlns:cc="http://creativecommons.org/ns#"
   xmlns:rdf="http://www.w3.org/1999/02/22-rdf-syntax-ns#"
   xmlns:svg="http://www.w3.org/2000/svg"
   xmlns="http://www.w3.org/2000/svg"
   xmlns:sodipodi="http://sodipodi.sourceforge.net/DTD/sodipodi-0.dtd"
   xmlns:inkscape="http://www.inkscape.org/namespaces/inkscape"
   width="30.718"
   height="30.84"
   viewBox="0 0 30.718 30.84"
   version="1.1"
   id="svg7"
   sodipodi:docname="Close.svg"
   inkscape:version="0.92.4 (unknown)">
  <metadata
     id="metadata11">
    <rdf:RDF>
      <cc:Work
         rdf:about="">
        <dc:format>image/svg+xml</dc:format>
        <dc:type
           rdf:resource="http://purl.org/dc/dcmitype/StillImage" />
      </cc:Work>
    </rdf:RDF>
  </metadata>
  <sodipodi:namedview
     pagecolor="#ffffff"
     bordercolor="#666666"
     borderopacity="1"
     objecttolerance="10"
     gridtolerance="10"
     guidetolerance="10"
     inkscape:pageopacity="0"
     inkscape:pageshadow="2"
     inkscape:window-width="960"
     inkscape:window-height="1025"
     id="namedview9"
     showgrid="false"
     inkscape:zoom="7.6523994"
     inkscape:cx="15.359"
     inkscape:cy="15.42"
     inkscape:window-x="0"
     inkscape:window-y="27"
     inkscape:window-maximized="0"
     inkscape:current-layer="svg7" />
  <defs
     id="defs4">
    <style
       id="style2">
      .cls-1 {
        fill-rule: evenodd;
      }
    </style>
  </defs>
  <path
     id="Close"
     class="cls-1"
     d="M894.788,1176.57l12.583-12.89a1.5,1.5,0,0,0-.022-2.11,1.478,1.478,0,0,0-2.1.02l-12.561,12.87-13.081-12.89a1.479,1.479,0,0,0-2.1.02,1.5,1.5,0,0,0,.02,2.11l13.062,12.87-13.062,12.87a1.5,1.5,0,0,0-.02,2.11,1.477,1.477,0,0,0,2.1.02l13.081-12.89,12.561,12.87a1.477,1.477,0,0,0,1.062.45,1.459,1.459,0,0,0,1.04-.43,1.5,1.5,0,0,0,.022-2.11Z"
     transform="translate(-877.094 -1161.16)"
     style="fill:#227093;fill-opacity:1" />
</svg>
