<?xml version="1.0" encoding="UTF-8" standalone="no"?>
<svg
   xmlns:dc="http://purl.org/dc/elements/1.1/"
   xmlns:cc="http://creativecommons.org/ns#"
   xmlns:rdf="http://www.w3.org/1999/02/22-rdf-syntax-ns#"
   xmlns:svg="http://www.w3.org/2000/svg"
   xmlns="http://www.w3.org/2000/svg"
   xmlns:sodipodi="http://sodipodi.sourceforge.net/DTD/sodipodi-0.dtd"
   xmlns:inkscape="http://www.inkscape.org/namespaces/inkscape"
   width="45"
   height="47"
   viewBox="0 0 45 47"
   version="1.1"
   id="svg7"
   sodipodi:docname="Idea.svg"
   inkscape:version="0.92.4 (unknown)">
  <metadata
     id="metadata11">
    <rdf:RDF>
      <cc:Work
         rdf:about="">
        <dc:format>image/svg+xml</dc:format>
        <dc:type
           rdf:resource="http://purl.org/dc/dcmitype/StillImage" />
      </cc:Work>
    </rdf:RDF>
  </metadata>
  <sodipodi:namedview
     pagecolor="#ffffff"
     bordercolor="#666666"
     borderopacity="1"
     objecttolerance="10"
     gridtolerance="10"
     guidetolerance="10"
     inkscape:pageopacity="0"
     inkscape:pageshadow="2"
     inkscape:window-width="960"
     inkscape:window-height="1023"
     id="namedview9"
     showgrid="false"
     inkscape:zoom="5.0212766"
     inkscape:cx="22.5"
     inkscape:cy="23.5"
     inkscape:window-x="0"
     inkscape:window-y="27"
     inkscape:window-maximized="0"
     inkscape:current-layer="svg7" />
  <defs
     id="defs4">
    <style
       id="style2">
      .cls-1 {
        fill-rule: evenodd;
      }
    </style>
  </defs>
  <path
     id="Idea"
     class="cls-1"
     d="M717.5,1685.99a1.5,1.5,0,0,0,1.5-1.5v-2a1.5,1.5,0,0,0-3,0v2A1.5,1.5,0,0,0,717.5,1685.99Zm21,14.01h-2a1.5,1.5,0,0,0,0,3h2A1.5,1.5,0,0,0,738.5,1700Zm-38.5,1.5a1.506,1.506,0,0,0-1.5-1.5h-2a1.5,1.5,0,0,0,0,3h2A1.5,1.5,0,0,0,700,1701.5Zm35.3,11.89a1.331,1.331,0,0,0-1.912,0,1.374,1.374,0,0,0,0,1.93l1.276,1.29a1.358,1.358,0,0,0,1.912-1.93Zm-35.3-.59-1.415,1.43a1.534,1.534,0,0,0,0,2.15,1.5,1.5,0,0,0,2.121,0l1.415-1.43a1.522,1.522,0,0,0,0-2.14A1.483,1.483,0,0,0,700.005,1712.8Zm32-7.81a14.144,14.144,0,0,0-14.237-14.01,13.662,13.662,0,0,0-13.769,13.83,13.963,13.963,0,0,0,7.139,12.57,1.831,1.831,0,0,0-.145,1.3v3.11c0,3.43,2.393,6.22,5.758,6.22h2.034A6.168,6.168,0,0,0,725,1722v-3a2.984,2.984,0,0,0-.481-1.62A14.02,14.02,0,0,0,732,1704.99ZM722,1719v1h-5.251a1.5,1.5,0,1,0,0,3h5.067a3.259,3.259,0,0,1-3.033,2.01h-2.034c-1.685,0-2.747-1.5-2.747-3.22v-3.11l3.754,0.32H722Zm-4.224-3h-0.02A10.96,10.96,0,0,1,707,1704.81a10.637,10.637,0,0,1,10.765-10.82A11.006,11.006,0,1,1,717.773,1716Zm-0.01-19.51a1.5,1.5,0,1,0,0,3,5.556,5.556,0,0,1,5.593,5.5,1.526,1.526,0,0,0,3.051,0A8.581,8.581,0,0,0,717.763,1696.49Zm17.542,16.9a1.331,1.331,0,0,0-1.912,0,1.374,1.374,0,0,0,0,1.93l1.276,1.29a1.358,1.358,0,0,0,1.912-1.93Zm-35.3-.59-1.415,1.43a1.534,1.534,0,0,0,0,2.15,1.5,1.5,0,0,0,2.121,0l1.415-1.43a1.522,1.522,0,0,0,0-2.14A1.483,1.483,0,0,0,700.005,1712.8Zm31.786-26.17-1.477,1.51a1.622,1.622,0,0,0,0,2.26,1.539,1.539,0,0,0,2.214,0l1.476-1.51a1.62,1.62,0,0,0,0-2.26A1.54,1.54,0,0,0,731.791,1686.63Zm-29.9-.13,1.6,1.6a1.695,1.695,0,1,1-2.393,2.4l-1.6-1.6A1.695,1.695,0,0,1,701.9,1686.5Z"
     transform="translate(-695 -1681)"
     style="fill:#227093;fill-opacity:1" />
</svg>
