<?xml version="1.0" encoding="UTF-8" standalone="no"?>
<svg
   xmlns:dc="http://purl.org/dc/elements/1.1/"
   xmlns:cc="http://creativecommons.org/ns#"
   xmlns:rdf="http://www.w3.org/1999/02/22-rdf-syntax-ns#"
   xmlns:svg="http://www.w3.org/2000/svg"
   xmlns="http://www.w3.org/2000/svg"
   xmlns:sodipodi="http://sodipodi.sourceforge.net/DTD/sodipodi-0.dtd"
   xmlns:inkscape="http://www.inkscape.org/namespaces/inkscape"
   width="41"
   height="38"
   viewBox="0 0 41 38"
   version="1.1"
   id="svg7"
   sodipodi:docname="User.svg"
   inkscape:version="0.92.4 (unknown)">
  <metadata
     id="metadata11">
    <rdf:RDF>
      <cc:Work
         rdf:about="">
        <dc:format>image/svg+xml</dc:format>
        <dc:type
           rdf:resource="http://purl.org/dc/dcmitype/StillImage" />
      </cc:Work>
    </rdf:RDF>
  </metadata>
  <sodipodi:namedview
     pagecolor="#ffffff"
     bordercolor="#666666"
     borderopacity="1"
     objecttolerance="10"
     gridtolerance="10"
     guidetolerance="10"
     inkscape:pageopacity="0"
     inkscape:pageshadow="2"
     inkscape:window-width="960"
     inkscape:window-height="1025"
     id="namedview9"
     showgrid="false"
     inkscape:zoom="6.2105263"
     inkscape:cx="20.5"
     inkscape:cy="19"
     inkscape:window-x="0"
     inkscape:window-y="27"
     inkscape:window-maximized="0"
     inkscape:current-layer="svg7" />
  <defs
     id="defs4">
    <style
       id="style2">
      .cls-1 {
        fill-rule: evenodd;
      }
    </style>
  </defs>
  <path
     id="User"
     class="cls-1"
     d="M190.5,1182c5.514,0,9.5-5.38,9.5-12s-3.986-12-9.5-12-9.5,5.38-9.5,12S184.986,1182,190.5,1182Zm0-21c3.866,0,6.5,4.03,6.5,9s-2.634,9-6.5,9-6.5-4.03-6.5-9S186.634,1161,190.5,1161Zm9.149,20.01a1.5,1.5,0,1,0-.3,2.98,9.753,9.753,0,0,1,8.576,9.01H173.074a9.826,9.826,0,0,1,8.579-9.01,1.5,1.5,0,0,0-.3-2.98c-0.114.01-11.351,1.27-11.351,13.49a1.5,1.5,0,0,0,1.5,1.5h38a1.5,1.5,0,0,0,1.5-1.5C211,1182.28,199.763,1181.02,199.649,1181.01Z"
     transform="translate(-170 -1158)"
     style="fill:#227093;fill-opacity:1" />
</svg>
